<?xml version="1.0" encoding="UTF-8"?>
<svg width="28px" height="23px" viewBox="0 0 28 23" version="1.1" xmlns="http://www.w3.org/2000/svg" xmlns:xlink="http://www.w3.org/1999/xlink">
    <!-- Generator: Sketch 60.1 (88133) - https://sketch.com -->
    <title>logo</title>
    <desc>Created with Sketch.</desc>
    <g id="Page-1" stroke="none" stroke-width="1" fill="none" fill-rule="evenodd">
        <g id="Desktop-HD-New-trip" transform="translate(-614.000000, -27.000000)" fill="#0B576D">
            <g id="Group" transform="translate(613.000000, 26.000000)">
                <path d="M9.09727273,12.599325 C9.09727273,12.599325 12.3009091,18.03075 14.9467273,18.046 C15.0104034,18.0569176 15.0751455,18.06155 15.1409697,18.06155 C15.2019009,18.06155 15.2619059,18.0575784 15.3207395,18.04988 C17.0402901,18.0581066 15.8761415,18.0497769 15.4646574,18.0468922 L15.4392494,18.0463799 C15.9234875,18.0206808 18.0854152,17.6084697 21.186,12.599325 L23.4620606,12.599325 C24.5900606,12.599325 25.8920606,13.5468 26.4120909,14.817975 L28.4294848,19.750075 C29.2334545,21.71565 28.6521212,23.49265 27.0385455,23.49265 L3.27372727,23.49265 C1.65993939,23.49265 1.07863636,21.71565 1.88260606,19.750075 L3.90021212,14.817975 C4.4200303,13.5468 5.7220303,12.599325 6.8500303,12.599325 L9.09727273,12.599325 Z M15.1423333,1.514825 C18.2663333,1.514825 20.798303,4.038075 20.798303,7.149425 C20.798303,7.586875 20.7484848,8.01265 20.6533333,8.4219 L20.6533333,8.4219 C19.967303,11.4393 18.2133939,14.046125 15.8143333,15.8377 C15.7534242,15.882425 15.6925152,15.927475 15.631,15.972175 C15.4885455,16.052875 15.323697,16.099525 15.1483636,16.099525 C14.9290303,16.099525 14.7266061,16.0276 14.564303,15.9064 C12.0965455,14.097325 10.2994545,11.434425 9.61224242,8.3545 L9.61224242,8.3545 C9.53148485,7.965675 9.48712121,7.5629 9.48712121,7.149425 C9.48712121,4.038075 12.0190909,1.514825 15.1423333,1.514825 Z M15.1423333,4.567525 C13.7122727,4.567525 12.5513636,5.724 12.5513636,7.149425 C12.5513636,8.57485 13.7122727,9.730675 15.1423333,9.730675 C16.5739394,9.730675 17.7338485,8.57485 17.7338485,7.149425 C17.7338485,5.724 16.5739394,4.567525 15.1423333,4.567525 Z" id="logo"></path>
            </g>
        </g>
    </g>
</svg>