<?xml version="1.0" encoding="UTF-8"?>
<svg width="223px" height="26px" viewBox="0 0 223 26" version="1.1" xmlns="http://www.w3.org/2000/svg" xmlns:xlink="http://www.w3.org/1999/xlink">
    <!-- Generator: Sketch 60.1 (88133) - https://sketch.com -->
    <title>TRIPBUILDER</title>
    <desc>Created with Sketch.</desc>
    <g id="Symbols" stroke="none" stroke-width="1" fill="none" fill-rule="evenodd">
        <g id="TRIPBUILDER" fill="#0B576D" fill-rule="nonzero">
            <path d="M14.08,24.84 L14.08,6.76 L19.36,6.76 L19.84,3.55271368e-15 L0.36,3.55271368e-15 L0,6.76 L5.56,6.76 L5.56,24.84 L14.08,24.84 Z M29.24,24.84 L29.24,16.28 L29.88,16.28 L32.36,24.84 L41.2,24.84 L37.48,14.32 C38.5733333,13.6 39.38,12.7666667 39.9,11.82 C40.42,10.8733333 40.68,9.6 40.68,8 C40.68,5.25333333 39.9466667,3.23333333 38.48,1.94 C37.0133333,0.646666667 34.7333333,3.55271368e-15 31.64,3.55271368e-15 L31.64,3.55271368e-15 L21.04,3.55271368e-15 L21.04,24.84 L29.24,24.84 Z M30.08,11.4 L29.08,11.4 L29.08,6.56 L30.12,6.56 C30.68,6.56 31.0933333,6.73333333 31.36,7.08 C31.6266667,7.42666667 31.76,8.05333333 31.76,8.96 C31.76,9.86666667 31.6333333,10.5 31.38,10.86 C31.1266667,11.22 30.6933333,11.4 30.08,11.4 L30.08,11.4 Z M52.24,24.84 L52.24,3.55271368e-15 L43.8,3.55271368e-15 L43.8,24.84 L52.24,24.84 Z M64.08,24.84 L64.08,17.08 L65.8,17.08 C68.8933333,17.08 71.16,16.4333333 72.6,15.14 C74.04,13.8466667 74.76,11.6666667 74.76,8.6 C74.76,5.53333333 74.0133333,3.33333333 72.52,2 C71.0266667,0.666666667 68.64,3.55271368e-15 65.36,3.55271368e-15 L65.36,3.55271368e-15 L55.68,3.55271368e-15 L55.68,24.84 L64.08,24.84 Z M64.96,11.92 L63.92,11.92 L63.92,6.32 L64.76,6.32 C65.4533333,6.32 65.9266667,6.53333333 66.18,6.96 C66.4333333,7.38666667 66.56,8.10666667 66.56,9.12 C66.56,10.1333333 66.44,10.8533333 66.2,11.28 C65.9866667,11.7066667 65.5733333,11.92 64.96,11.92 L64.96,11.92 Z M95.6,24.84 C101.626667,24.84 104.64,22.4133333 104.64,17.56 C104.64,14.7066667 103.56,12.7866667 101.4,11.8 L101.4,11.8 L101.4,11.64 C103.266667,10.44 104.2,8.73333333 104.2,6.52 C104.2,4.30666667 103.486667,2.66666667 102.06,1.6 C100.633333,0.533333333 98.4266667,3.55271368e-15 95.44,3.55271368e-15 L95.44,3.55271368e-15 L84.28,3.55271368e-15 L84.28,24.84 L95.6,24.84 Z M94,10.36 L92.8,10.36 L92.8,6 L93.96,6 C94.4666667,6 94.8333333,6.17333333 95.06,6.52 C95.2866667,6.86666667 95.4,7.43333333 95.4,8.22 C95.4,9.00666667 95.2866667,9.56 95.06,9.88 C94.8333333,10.2 94.48,10.36 94,10.36 L94,10.36 Z M93.96,19.88 L92.8,19.88 L92.8,14.76 L93.96,14.76 C94.6533333,14.76 95.1266667,14.9666667 95.38,15.38 C95.6333333,15.7933333 95.76,16.4933333 95.76,17.48 C95.76,18.4666667 95.64,19.1133333 95.4,19.42 C95.16,19.7266667 94.68,19.88 93.96,19.88 L93.96,19.88 Z M117.36,25.24 C120.8,25.24 123.44,24.52 125.28,23.08 C127.12,21.64 128.04,19.4533333 128.04,16.52 L128.04,16.52 L128.04,3.55271368e-15 L119.48,3.55271368e-15 L119.48,16 C119.48,17.4666667 118.833333,18.2 117.54,18.2 C116.246667,18.2 115.6,17.48 115.6,16.04 L115.6,16.04 L115.6,3.55271368e-15 L106.88,3.55271368e-15 L106.88,16.6 C106.88,22.36 110.373333,25.24 117.36,25.24 Z M140,24.84 L140,3.55271368e-15 L131.56,3.55271368e-15 L131.56,24.84 L140,24.84 Z M158.36,24.84 L158.92,18.4 L152,18.4 L152,3.55271368e-15 L143.44,3.55271368e-15 L143.44,24.84 L158.36,24.84 Z M169.6,24.84 C177.493333,24.84 181.44,20.52 181.44,11.88 C181.44,8.04 180.56,5.1 178.8,3.06 C177.04,1.02 174.04,3.55271368e-15 169.8,3.55271368e-15 L169.8,3.55271368e-15 L159.96,3.55271368e-15 L159.96,24.84 L169.6,24.84 Z M169.48,18.6 L168.48,18.6 L168.48,6.52 L169.32,6.52 C170.706667,6.52 171.62,6.98 172.06,7.9 C172.5,8.82 172.72,10.3666667 172.72,12.54 C172.72,14.7133333 172.52,16.2666667 172.12,17.2 C171.72,18.1333333 170.84,18.6 169.48,18.6 L169.48,18.6 Z M199.76,24.84 L200.32,18.76 L192.48,18.76 L192.48,15.36 L198.84,15.36 L198.84,9.6 L192.48,9.6 L192.48,6.6 L199.76,6.6 L200.32,3.55271368e-15 L183.92,3.55271368e-15 L183.92,24.84 L199.76,24.84 Z M210.56,24.84 L210.56,16.28 L211.2,16.28 L213.68,24.84 L222.52,24.84 L218.8,14.32 C219.893333,13.6 220.7,12.7666667 221.22,11.82 C221.74,10.8733333 222,9.6 222,8 C222,5.25333333 221.266667,3.23333333 219.8,1.94 C218.333333,0.646666667 216.053333,3.55271368e-15 212.96,3.55271368e-15 L212.96,3.55271368e-15 L202.36,3.55271368e-15 L202.36,24.84 L210.56,24.84 Z M211.4,11.4 L210.4,11.4 L210.4,6.56 L211.44,6.56 C212,6.56 212.413333,6.73333333 212.68,7.08 C212.946667,7.42666667 213.08,8.05333333 213.08,8.96 C213.08,9.86666667 212.953333,10.5 212.7,10.86 C212.446667,11.22 212.013333,11.4 211.4,11.4 L211.4,11.4 Z"></path>
        </g>
    </g>
</svg>