<?xml version="1.0" encoding="UTF-8"?>
<svg width="156px" height="26px" viewBox="0 0 156 26" version="1.1" xmlns="http://www.w3.org/2000/svg" xmlns:xlink="http://www.w3.org/1999/xlink">
    <!-- Generator: Sketch 60.1 (88133) - https://sketch.com -->
    <title>Group</title>
    <desc>Created with Sketch.</desc>
    <g id="Page-1" stroke="none" stroke-width="1" fill="none" fill-rule="evenodd">
        <g id="Desktop-HD-New-trip" transform="translate(-614.000000, -27.000000)" fill="#0B576D">
            <g id="Group" transform="translate(613.000000, 26.000000)">
                <path d="M9.09727273,12.599325 C9.09727273,12.599325 12.3009091,18.03075 14.9467273,18.046 C15.0104034,18.0569176 15.0751455,18.06155 15.1409697,18.06155 C15.2019009,18.06155 15.2619059,18.0575784 15.3207395,18.04988 C17.0402901,18.0581066 15.8761415,18.0497769 15.4646574,18.0468922 L15.4392494,18.0463799 C15.9234875,18.0206808 18.0854152,17.6084697 21.186,12.599325 L23.4620606,12.599325 C24.5900606,12.599325 25.8920606,13.5468 26.4120909,14.817975 L28.4294848,19.750075 C29.2334545,21.71565 28.6521212,23.49265 27.0385455,23.49265 L3.27372727,23.49265 C1.65993939,23.49265 1.07863636,21.71565 1.88260606,19.750075 L3.90021212,14.817975 C4.4200303,13.5468 5.7220303,12.599325 6.8500303,12.599325 L9.09727273,12.599325 Z M15.1423333,1.514825 C18.2663333,1.514825 20.798303,4.038075 20.798303,7.149425 C20.798303,7.586875 20.7484848,8.01265 20.6533333,8.4219 L20.6533333,8.4219 C19.967303,11.4393 18.2133939,14.046125 15.8143333,15.8377 C15.7534242,15.882425 15.6925152,15.927475 15.631,15.972175 C15.4885455,16.052875 15.323697,16.099525 15.1483636,16.099525 C14.9290303,16.099525 14.7266061,16.0276 14.564303,15.9064 C12.0965455,14.097325 10.2994545,11.434425 9.61224242,8.3545 L9.61224242,8.3545 C9.53148485,7.965675 9.48712121,7.5629 9.48712121,7.149425 C9.48712121,4.038075 12.0190909,1.514825 15.1423333,1.514825 Z M15.1423333,4.567525 C13.7122727,4.567525 12.5513636,5.724 12.5513636,7.149425 C12.5513636,8.57485 13.7122727,9.730675 15.1423333,9.730675 C16.5739394,9.730675 17.7338485,8.57485 17.7338485,7.149425 C17.7338485,5.724 16.5739394,4.567525 15.1423333,4.567525 Z" id="logo"></path>
                <path d="M41.216,21.288 C41.632,21.288 42.048,21.252 42.464,21.18 C42.88,21.108 43.224,21.024 43.496,20.928 L43.496,20.928 L43.448,18.048 C43.304,18.112 43.124,18.16 42.908,18.192 C42.692,18.224 42.488,18.24 42.296,18.24 C41.736,18.24 41.348,18.1 41.132,17.82 C40.916,17.54 40.808,17.12 40.808,16.56 L40.808,16.56 L40.808,12 L43.616,12 L43.616,9.048 L40.808,9.048 L40.808,5.904 L36.944,5.904 L36.944,9.048 L35.048,9.048 L35.048,12 L36.968,12 L36.968,17.04 C36.968,17.68 37.04,18.26 37.184,18.78 C37.328,19.3 37.564,19.748 37.892,20.124 C38.22,20.5 38.656,20.788 39.2,20.988 C39.744,21.188 40.416,21.288 41.216,21.288 Z M48.95,21 L48.95,14.856 C48.95,14.616 48.998,14.336 49.094,14.016 C49.19,13.696 49.346,13.4 49.562,13.128 C49.778,12.856 50.066,12.624 50.426,12.432 C50.786,12.24 51.23,12.144 51.758,12.144 C51.918,12.144 52.082,12.152 52.25,12.168 C52.418,12.184 52.59,12.216 52.766,12.264 L52.766,12.264 L52.934,8.808 C52.838,8.776 52.714,8.752 52.562,8.736 C52.41,8.72 52.254,8.712 52.094,8.712 C51.358,8.712 50.71,8.904 50.15,9.288 C49.59,9.672 49.158,10.168 48.854,10.776 L48.854,10.776 L48.806,10.776 L48.806,9.048 L45.014,9.048 L45.014,21 L48.95,21 Z M56.084,7.392 C56.388,7.392 56.68,7.336 56.96,7.224 C57.24,7.112 57.48,6.96 57.68,6.768 C57.88,6.576 58.04,6.348 58.16,6.084 C58.28,5.82 58.34,5.536 58.34,5.232 C58.34,4.928 58.28,4.644 58.16,4.38 C58.04,4.116 57.88,3.888 57.68,3.696 C57.48,3.504 57.24,3.352 56.96,3.24 C56.68,3.128 56.388,3.072 56.084,3.072 C55.764,3.072 55.468,3.132 55.196,3.252 C54.924,3.372 54.684,3.528 54.476,3.72 C54.268,3.912 54.108,4.14 53.996,4.404 C53.884,4.668 53.828,4.944 53.828,5.232 C53.828,5.824 54.044,6.332 54.476,6.756 C54.908,7.18 55.444,7.392 56.084,7.392 Z M58.052,21 L58.052,9.048 L54.116,9.048 L54.116,21 L58.052,21 Z M64.658,26.76 L64.658,19.68 L64.706,19.68 C65.074,20.192 65.586,20.596 66.242,20.892 C66.898,21.188 67.594,21.336 68.33,21.336 C69.226,21.336 70.026,21.16 70.73,20.808 C71.434,20.456 72.03,19.988 72.518,19.404 C73.006,18.82 73.378,18.144 73.634,17.376 C73.89,16.608 74.018,15.808 74.018,14.976 C74.018,14.144 73.886,13.348 73.622,12.588 C73.358,11.828 72.982,11.16 72.494,10.584 C72.006,10.008 71.41,9.552 70.706,9.216 C70.002,8.88 69.218,8.712 68.354,8.712 C67.474,8.712 66.71,8.892 66.062,9.252 C65.414,9.612 64.906,10.032 64.538,10.512 L64.538,10.512 L64.466,10.512 L64.466,9.048 L60.722,9.048 L60.722,26.76 L64.658,26.76 Z M67.394,18.072 C66.946,18.072 66.546,17.984 66.194,17.808 C65.842,17.632 65.542,17.4 65.294,17.112 C65.046,16.824 64.854,16.496 64.718,16.128 C64.582,15.76 64.514,15.384 64.514,15 C64.514,14.616 64.582,14.24 64.718,13.872 C64.854,13.504 65.046,13.176 65.294,12.888 C65.542,12.6 65.842,12.368 66.194,12.192 C66.546,12.016 66.946,11.928 67.394,11.928 C67.858,11.928 68.266,12.016 68.618,12.192 C68.97,12.368 69.262,12.596 69.494,12.876 C69.726,13.156 69.902,13.48 70.022,13.848 C70.142,14.216 70.202,14.592 70.202,14.976 C70.202,15.36 70.142,15.74 70.022,16.116 C69.902,16.492 69.726,16.824 69.494,17.112 C69.262,17.4 68.97,17.632 68.618,17.808 C68.266,17.984 67.858,18.072 67.394,18.072 Z M83.672,21.336 C84.568,21.336 85.368,21.16 86.072,20.808 C86.776,20.456 87.372,19.988 87.86,19.404 C88.348,18.82 88.72,18.144 88.976,17.376 C89.232,16.608 89.36,15.808 89.36,14.976 C89.36,14.144 89.228,13.348 88.964,12.588 C88.7,11.828 88.324,11.16 87.836,10.584 C87.348,10.008 86.756,9.552 86.06,9.216 C85.364,8.88 84.584,8.712 83.72,8.712 C82.84,8.712 82.096,8.88 81.488,9.216 C80.88,9.552 80.408,9.92 80.072,10.32 L80.072,10.32 L80.024,10.32 L80.024,2.856 L76.088,2.856 L76.088,21 L79.712,21 L79.712,19.44 L79.76,19.44 C80.144,20.048 80.692,20.516 81.404,20.844 C82.116,21.172 82.872,21.336 83.672,21.336 Z M82.736,18.072 C82.288,18.072 81.888,17.984 81.536,17.808 C81.184,17.632 80.884,17.4 80.636,17.112 C80.388,16.824 80.196,16.496 80.06,16.128 C79.924,15.76 79.856,15.384 79.856,15 C79.856,14.616 79.924,14.24 80.06,13.872 C80.196,13.504 80.388,13.176 80.636,12.888 C80.884,12.6 81.184,12.368 81.536,12.192 C81.888,12.016 82.288,11.928 82.736,11.928 C83.2,11.928 83.608,12.016 83.96,12.192 C84.312,12.368 84.608,12.596 84.848,12.876 C85.088,13.156 85.268,13.48 85.388,13.848 C85.508,14.216 85.568,14.592 85.568,14.976 C85.568,15.36 85.508,15.74 85.388,16.116 C85.268,16.492 85.088,16.824 84.848,17.112 C84.608,17.4 84.312,17.632 83.96,17.808 C83.608,17.984 83.2,18.072 82.736,18.072 Z M95.63,21.336 C96.046,21.336 96.442,21.28 96.818,21.168 C97.194,21.056 97.538,20.912 97.85,20.736 C98.162,20.56 98.434,20.352 98.666,20.112 C98.898,19.872 99.086,19.616 99.23,19.344 L99.23,19.344 L99.278,19.344 L99.278,21 L103.07,21 L103.07,9.048 L99.134,9.048 L99.134,15.504 C99.134,16.192 98.954,16.792 98.594,17.304 C98.234,17.816 97.71,18.072 97.022,18.072 C96.654,18.072 96.358,18.004 96.134,17.868 C95.91,17.732 95.73,17.544 95.594,17.304 C95.458,17.064 95.366,16.792 95.318,16.488 C95.27,16.184 95.246,15.864 95.246,15.528 L95.246,15.528 L95.246,9.048 L91.286,9.048 L91.286,16.44 C91.286,17.048 91.362,17.644 91.514,18.228 C91.666,18.812 91.914,19.332 92.258,19.788 C92.602,20.244 93.05,20.616 93.602,20.904 C94.154,21.192 94.83,21.336 95.63,21.336 Z M107.708,7.392 C108.012,7.392 108.304,7.336 108.584,7.224 C108.864,7.112 109.104,6.96 109.304,6.768 C109.504,6.576 109.664,6.348 109.784,6.084 C109.904,5.82 109.964,5.536 109.964,5.232 C109.964,4.928 109.904,4.644 109.784,4.38 C109.664,4.116 109.504,3.888 109.304,3.696 C109.104,3.504 108.864,3.352 108.584,3.24 C108.304,3.128 108.012,3.072 107.708,3.072 C107.388,3.072 107.092,3.132 106.82,3.252 C106.548,3.372 106.308,3.528 106.1,3.72 C105.892,3.912 105.732,4.14 105.62,4.404 C105.508,4.668 105.452,4.944 105.452,5.232 C105.452,5.824 105.668,6.332 106.1,6.756 C106.532,7.18 107.068,7.392 107.708,7.392 Z M109.676,21 L109.676,9.048 L105.74,9.048 L105.74,21 L109.676,21 Z M116.378,21 L116.378,2.856 L112.394,2.856 L112.394,21 L116.378,21 Z M124.136,21.336 C124.936,21.336 125.692,21.172 126.404,20.844 C127.116,20.516 127.664,20.048 128.048,19.44 L128.048,19.44 L128.096,19.44 L128.096,21 L131.72,21 L131.72,2.856 L127.784,2.856 L127.784,10.32 L127.736,10.32 C127.4,9.92 126.928,9.552 126.32,9.216 C125.712,8.88 124.968,8.712 124.088,8.712 C123.224,8.712 122.444,8.88 121.748,9.216 C121.052,9.552 120.46,10.008 119.972,10.584 C119.484,11.16 119.108,11.828 118.844,12.588 C118.58,13.348 118.448,14.144 118.448,14.976 C118.448,15.808 118.576,16.608 118.832,17.376 C119.088,18.144 119.46,18.82 119.948,19.404 C120.436,19.988 121.032,20.456 121.736,20.808 C122.44,21.16 123.24,21.336 124.136,21.336 Z M125.072,18.072 C124.608,18.072 124.2,17.984 123.848,17.808 C123.496,17.632 123.2,17.4 122.96,17.112 C122.72,16.824 122.54,16.492 122.42,16.116 C122.3,15.74 122.24,15.36 122.24,14.976 C122.24,14.592 122.3,14.216 122.42,13.848 C122.54,13.48 122.72,13.156 122.96,12.876 C123.2,12.596 123.496,12.368 123.848,12.192 C124.2,12.016 124.608,11.928 125.072,11.928 C125.52,11.928 125.92,12.016 126.272,12.192 C126.624,12.368 126.924,12.6 127.172,12.888 C127.42,13.176 127.612,13.504 127.748,13.872 C127.884,14.24 127.952,14.616 127.952,15 C127.952,15.384 127.884,15.76 127.748,16.128 C127.612,16.496 127.42,16.824 127.172,17.112 C126.924,17.4 126.624,17.632 126.272,17.808 C125.92,17.984 125.52,18.072 125.072,18.072 Z M140.366,21.384 C141.582,21.384 142.65,21.164 143.57,20.724 C144.49,20.284 145.23,19.656 145.79,18.84 L145.79,18.84 L143.054,17.112 C142.782,17.48 142.43,17.78 141.998,18.012 C141.566,18.244 141.038,18.36 140.414,18.36 C140.062,18.36 139.722,18.304 139.394,18.192 C139.066,18.08 138.77,17.924 138.506,17.724 C138.242,17.524 138.026,17.288 137.858,17.016 C137.69,16.744 137.59,16.44 137.558,16.104 L137.558,16.104 L146.222,16.104 C146.238,15.96 146.246,15.808 146.246,15.648 L146.246,15.648 L146.246,15.168 C146.246,14.144 146.098,13.232 145.802,12.432 C145.506,11.632 145.094,10.952 144.566,10.392 C144.038,9.832 143.406,9.404 142.67,9.108 C141.934,8.812 141.126,8.664 140.246,8.664 C139.334,8.664 138.486,8.816 137.702,9.12 C136.918,9.424 136.238,9.852 135.662,10.404 C135.086,10.956 134.63,11.628 134.294,12.42 C133.958,13.212 133.79,14.096 133.79,15.072 C133.79,16.08 133.962,16.976 134.306,17.76 C134.65,18.544 135.122,19.204 135.722,19.74 C136.322,20.276 137.022,20.684 137.822,20.964 C138.622,21.244 139.47,21.384 140.366,21.384 Z M142.622,13.656 L137.558,13.656 C137.574,13.352 137.654,13.06 137.798,12.78 C137.942,12.5 138.134,12.256 138.374,12.048 C138.614,11.84 138.894,11.676 139.214,11.556 C139.534,11.436 139.886,11.376 140.27,11.376 C141.054,11.376 141.642,11.6 142.034,12.048 C142.426,12.496 142.622,13.032 142.622,13.656 L142.622,13.656 Z M152.18,21 L152.18,14.856 C152.18,14.616 152.228,14.336 152.324,14.016 C152.42,13.696 152.576,13.4 152.792,13.128 C153.008,12.856 153.296,12.624 153.656,12.432 C154.016,12.24 154.46,12.144 154.988,12.144 C155.148,12.144 155.312,12.152 155.48,12.168 C155.648,12.184 155.82,12.216 155.996,12.264 L155.996,12.264 L156.164,8.808 C156.068,8.776 155.944,8.752 155.792,8.736 C155.64,8.72 155.484,8.712 155.324,8.712 C154.588,8.712 153.94,8.904 153.38,9.288 C152.82,9.672 152.388,10.168 152.084,10.776 L152.084,10.776 L152.036,10.776 L152.036,9.048 L148.244,9.048 L148.244,21 L152.18,21 Z" id="tripbuilder" fill-rule="nonzero"></path>
            </g>
        </g>
    </g>
</svg>